<?xml version="1.0" encoding="UTF-8"?>
<svg width="64" height="64" preserveAspectRatio="xMidYMid" version="1.1" viewBox="0 0 512 512" xmlns="http://www.w3.org/2000/svg">
 <path d="m256 512c141.38 0 256-114.62 256-256s-114.62-256-256-256-256 114.61-256 256 114.62 256 256 256z" fill="#222"/>
 <path d="m130.22 128c139.4 0 253.78 114.4 253.78 252.84 0 0.985-0.062 1.969-0.078 2.969h-47.579c0.016-1 0.078-1.984 0.078-2.969 0-112.4-93.045-205.58-206.2-205.58-0.649 0-1.316 0.056-1.968 0.056v-47.259c0.652 0 1.319-0.054 1.968-0.054z" fill="#80f6ff"/>
 <path d="m164.19 384c-19.979 0-36.187-16.066-36.187-35.934 0-19.845 16.208-35.943 36.187-35.943 20 0 36.185 16.098 36.185 35.943 0 19.868-16.185 35.934-36.185 35.934z" fill="#fff"/>
 <path d="m248.28 383.8c0.023-1.015 0.148-1.968 0.148-2.969 0-65.156-52.613-117.65-118.21-117.65-0.649 0-1.316 0.086-1.968 0.094v-47.258c0.652-0.016 1.319-0.117 1.968-0.117 91.832 0 165.8 73.711 165.8 164.93 0 1.001-0.141 1.954-0.168 2.969z" fill="#ffec8f"/>
</svg>
